<svg width="34" height="34" viewBox="0 0 34 34" fill="none" xmlns="http://www.w3.org/2000/svg">
<g id="fi-rr-arrow-up" clip-path="url(#clip0_26_374)">
<path id="Vector" d="M16.8221 8.63377C16.8229 8.89796 16.9282 9.1511 17.115 9.3379C17.3018 9.52471 17.5549 9.63001 17.8191 9.63079L22.9244 9.60251L8.48528 24.0416C8.29775 24.2292 8.19239 24.4835 8.19239 24.7488C8.19239 25.014 8.29775 25.2683 8.48528 25.4559C8.67282 25.6434 8.92717 25.7488 9.19239 25.7488C9.45761 25.7488 9.71196 25.6434 9.8995 25.4559L24.3316 11.0238L24.3316 16.1432C24.331 16.2753 24.3566 16.4061 24.4069 16.5281C24.4572 16.6502 24.5311 16.7611 24.6244 16.8545C24.7178 16.9478 24.8287 17.0217 24.9508 17.072C25.0728 17.1223 25.2036 17.1479 25.3357 17.1473C25.5998 17.1466 25.853 17.0413 26.0398 16.8544C26.2266 16.6676 26.3319 16.4145 26.3327 16.1503L26.3397 10.6137C26.3393 9.81866 26.0232 9.05636 25.4611 8.49421C24.8989 7.93206 24.1366 7.61603 23.3416 7.61553L17.8191 7.63675C17.5549 7.63754 17.3018 7.74283 17.115 7.92964C16.9282 8.11645 16.8229 8.36959 16.8221 8.63377Z" fill="#374957"/>
</g>
<defs>
<clipPath id="clip0_26_374">
<rect width="24" height="24" fill="white" transform="translate(16.9706) rotate(45)"/>
</clipPath>
</defs>
</svg>
