<?xml version="1.0" standalone="no"?>
<!DOCTYPE svg PUBLIC "-//W3C//DTD SVG 20010904//EN"
 "http://www.w3.org/TR/2001/REC-SVG-20010904/DTD/svg10.dtd">
<svg version="1.0" xmlns="http://www.w3.org/2000/svg"
 width="360.000000pt" height="360.000000pt" viewBox="0 0 360.000000 360.000000"
 preserveAspectRatio="xMidYMid meet">

<g transform="translate(0.000000,360.000000) scale(0.100000,-0.100000)"
fill="#FFF" stroke="none">
<path d="M265 2776 c-77 -35 -103 -104 -80 -220 56 -294 301 -778 583 -1154
212 -283 497 -483 803 -564 71 -19 111 -23 249 -23 157 0 168 1 215 25 38 19
55 36 73 70 21 42 22 57 22 247 l0 203 28 0 c67 0 213 -116 407 -326 71 -77
145 -152 164 -167 68 -54 84 -57 335 -57 221 0 234 1 276 23 58 29 84 74 83
141 -3 121 -116 284 -412 596 -75 80 -140 150 -144 157 -5 7 44 89 118 199
201 300 318 505 360 633 34 103 7 183 -72 217 -49 21 -470 20 -521 -2 -63 -26
-88 -61 -191 -268 -116 -234 -228 -409 -336 -524 -42 -45 -81 -82 -86 -82 -4
0 -9 177 -11 393 -3 435 -3 436 -71 477 -30 19 -52 20 -350 20 -342 0 -346 -1
-396 -54 -18 -19 -26 -41 -29 -79 -4 -49 -1 -57 41 -119 88 -128 82 -95 85
-455 2 -204 0 -323 -6 -323 -18 0 -104 103 -173 207 -88 134 -196 348 -264
525 -72 187 -92 226 -138 262 l-39 31 -246 2 c-191 2 -254 0 -277 -11z m484
-133 c11 -10 42 -76 69 -148 156 -416 391 -794 535 -861 75 -34 139 -17 174
49 16 28 18 68 21 337 4 390 -6 449 -99 573 -21 28 -36 54 -33 59 3 4 133 8
288 8 l284 0 4 -24 c3 -14 5 -190 6 -393 0 -251 4 -378 12 -398 26 -69 87 -98
159 -76 47 14 139 93 209 180 114 141 263 391 346 581 60 136 49 131 294 128
l207 -3 -3 -30 c-7 -75 -121 -279 -340 -609 -132 -198 -146 -223 -150 -270 -3
-45 0 -56 30 -98 18 -26 97 -115 175 -198 223 -236 337 -388 350 -463 7 -45 1
-47 -230 -47 -142 0 -195 3 -215 14 -15 8 -100 91 -190 185 -259 271 -377 354
-502 355 -77 0 -110 -17 -136 -72 -14 -31 -17 -69 -18 -243 -1 -114 -4 -210
-7 -213 -15 -16 -132 -28 -214 -22 -251 17 -500 133 -712 331 -253 235 -578
771 -708 1168 -42 129 -53 196 -34 208 8 5 102 9 210 9 173 0 199 -2 218 -17z"/>
</g>
</svg>
